PathFileType	4	(X/Y/Z)	/home/nbianco/projects/addbio/data/HamnerRunning2013/Processed/subject17//results/MarkerData/run200.trc
DataRate	CameraRate	NumFrames	NumMarkers	Units	OrigDataRate	OrigDataStartFrame	OrigNumFrames
120.005	120.005	8	41	m	120.005	178	285
Frame#	Time	C7			CLAV			LACR			LASI			LCAL			LFAradius			LFAsuperior			LFAulna			LLEL			LMEL			LMT5			LPSI			LTB1			LTB2			LTB3			LTH1			LTH2			LTH3			LTOE			LUA1			LUA2			LUA3			RACR			RASI			RCAL			RFAradius			RFAsuperior			RFAulna			RLEL			RMEL			RMT5			RPSI			RTB1			RTB2			RTB3			RTH1			RTH3			RTOE			RUA1			RUA2			RUA3		
		X1	Y1	Z1	X2	Y2	Z2	X3	Y3	Z3	X4	Y4	Z4	X5	Y5	Z5	X6	Y6	Z6	X7	Y7	Z7	X8	Y8	Z8	X9	Y9	Z9	X10	Y10	Z10	X11	Y11	Z11	X12	Y12	Z12	X13	Y13	Z13	X14	Y14	Z14	X15	Y15	Z15	X16	Y16	Z16	X17	Y17	Z17	X18	Y18	Z18	X19	Y19	Z19	X20	Y20	Z20	X21	Y21	Z21	X22	Y22	Z22	X23	Y23	Z23	X24	Y24	Z24	X25	Y25	Z25	X26	Y26	Z26	X27	Y27	Z27	X28	Y28	Z28	X29	Y29	Z29	X30	Y30	Z30	X31	Y31	Z31	X32	Y32	Z32	X33	Y33	Z33	X34	Y34	Z34	X35	Y35	Z35	X36	Y36	Z36	X37	Y37	Z37	X38	Y38	Z38	X39	Y39	Z39	X40	Y40	Z40	X41	Y41	Z41

179	2.25833	0.801571	1.55481	-0.285757	0.913781	1.49766	-0.224079	0.901338	1.51118	-0.449294	0.895872	1.03872	-0.38565	0.431917	0.208663	-0.290158	0.987472	1.23071	-0.38288	0.936618	1.19936	-0.493724	1.01429	1.17268	-0.411528	0.831578	1.2166	-0.567545	0.766222	1.21154	-0.506437	0.570511	0.0637799	-0.331704	0.741218	1.08452	-0.317109	0.669131	0.426764	-0.299449	0.593714	0.37791	-0.366378	0.583279	0.279597	-0.29564	0.804354	0.852716	-0.43525	0.819574	0.738159	-0.407597	0.711382	0.65269	-0.382892	0.588644	0.0813046	-0.24452	0.864217	1.37854	-0.519126	0.799428	1.3332	-0.535206	0.867786	1.29173	-0.535558	0.807347	1.50929	-0.0759697	0.903174	1.04718	-0.157487	0.845684	0.153684	-0.213534	0.682918	1.11413	-0.0515976	0.624551	1.21397	-0.00665046	0.624816	1.08681	-0.0227138	0.565372	1.3273	-0.0109863	0.54809	1.31529	-0.0910724	1.03157	0.110272	-0.144718	0.736189	1.08683	-0.219612	1.01826	0.421475	-0.20828	0.970065	0.370992	-0.14423	0.9793	0.305529	-0.210571	0.879034	0.889754	-0.0910085	0.965957	0.644282	-0.142291	1.05398	0.126503	-0.237535	0.70035	1.42024	-0.0349142	0.643152	1.4408	-0.0803025	0.62714	1.37062	-0.0189109
180	2.26667	0.801842	1.55815	-0.285447	0.914091	1.50144	-0.223367	0.90245	1.51552	-0.44825	0.898002	1.04237	-0.384947	0.426429	0.219206	-0.292722	0.987066	1.23632	-0.382007	0.9379	1.20503	-0.493589	1.01465	1.17861	-0.410389	0.83383	1.2221	-0.56893	0.767775	1.21683	-0.50847	0.557008	0.0661082	-0.332981	0.74359	1.08937	-0.317025	0.663981	0.432443	-0.301332	0.587515	0.385132	-0.368122	0.576822	0.285872	-0.298207	0.804835	0.857486	-0.435589	0.818476	0.742498	-0.408367	0.709193	0.65847	-0.383499	0.575891	0.0838566	-0.245869	0.866109	1.38387	-0.519223	0.801512	1.33876	-0.536017	0.870116	1.29727	-0.536734	0.807124	1.51338	-0.0761304	0.90482	1.05042	-0.157264	0.864679	0.144969	-0.216112	0.682343	1.11977	-0.0523304	0.62338	1.2195	-0.00794209	0.624209	1.09209	-0.0238411	0.563997	1.33276	-0.0128701	0.547849	1.32043	-0.093212	1.05329	0.112566	-0.149004	0.738484	1.09129	-0.21942	1.02158	0.422725	-0.209843	0.97681	0.369372	-0.14578	0.98929	0.304871	-0.212947	0.877942	0.892113	-0.0913737	0.962055	0.645263	-0.142897	1.07411	0.131513	-0.241552	0.699414	1.42507	-0.0356671	0.643209	1.44549	-0.0823944	0.625996	1.37618	-0.0201888
181	2.275	0.802133	1.56087	-0.285037	0.914504	1.50458	-0.222701	0.903391	1.51918	-0.447199	0.8999	1.04553	-0.384118	0.421421	0.229596	-0.295264	0.986489	1.24099	-0.381245	0.938792	1.20981	-0.493477	1.01469	1.18351	-0.409519	0.835601	1.22689	-0.570127	0.769116	1.22143	-0.510196	0.543918	0.0691715	-0.334444	0.745581	1.09355	-0.316798	0.659995	0.43714	-0.303085	0.58242	0.39151	-0.369713	0.570903	0.291563	-0.300478	0.805447	0.861804	-0.435893	0.81804	0.746284	-0.40914	0.708129	0.663277	-0.384167	0.563457	0.0869273	-0.247188	0.867623	1.38857	-0.51927	0.803167	1.34365	-0.536562	0.872016	1.30218	-0.537996	0.807157	1.51683	-0.0761775	0.906242	1.0528	-0.157066	0.882489	0.137368	-0.218444	0.682351	1.12445	-0.0528721	0.62276	1.22397	-0.00904278	0.624215	1.09635	-0.02482	0.563141	1.33716	-0.014542	0.548082	1.32455	-0.0951541	1.07311	0.1156	-0.152981	0.740481	1.09489	-0.219269	1.0243	0.423716	-0.211336	0.982801	0.367949	-0.147249	0.998249	0.304391	-0.214943	0.876587	0.8935	-0.0917549	0.958175	0.645622	-0.143363	1.09213	0.137121	-0.245199	0.698861	1.42909	-0.0363064	0.643574	1.44932	-0.0842326	0.62526	1.38068	-0.0214226
182	2.28333	0.802458	1.56291	-0.284488	0.915036	1.50701	-0.22205	0.904196	1.52212	-0.446128	0.901604	1.04825	-0.38334	0.416828	0.239676	-0.297697	0.985755	1.24465	-0.380554	0.939293	1.21364	-0.493365	1.01442	1.1873	-0.408827	0.836877	1.23089	-0.571112	0.770203	1.22525	-0.511592	0.531144	0.0726868	-0.335841	0.747205	1.09695	-0.316381	0.657212	0.440734	-0.304598	0.578515	0.396912	-0.371206	0.565564	0.296603	-0.30237	0.806233	0.865573	-0.436142	0.818309	0.749437	-0.409823	0.708208	0.666913	-0.384936	0.551334	0.0902909	-0.248403	0.868771	1.39254	-0.519258	0.804398	1.34778	-0.53684	0.873482	1.30636	-0.539329	0.807451	1.51956	-0.0760535	0.907413	1.05433	-0.156811	0.89868	0.130905	-0.220524	0.682957	1.12799	-0.0532611	0.622714	1.22734	-0.00992992	0.62482	1.09957	-0.0256183	0.562792	1.34043	-0.0159497	0.548655	1.32763	-0.0968044	1.09065	0.11908	-0.156505	0.742073	1.09753	-0.219127	1.02648	0.424452	-0.212815	0.987895	0.366687	-0.148612	1.00606	0.304063	-0.216671	0.875364	0.893992	-0.0920448	0.954437	0.645339	-0.14377	1.10777	0.142927	-0.248403	0.69871	1.4322	-0.0367858	0.644202	1.45222	-0.0857413	0.624923	1.38408	-0.0225367
183	2.29167	0.802847	1.56428	-0.283788	0.915699	1.50873	-0.221407	0.90489	1.52428	-0.445059	0.903168	1.05057	-0.382822	0.412626	0.249337	-0.299959	0.984894	1.24727	-0.379922	0.939398	1.21643	-0.493226	1.01385	1.18992	-0.408201	0.837649	1.23403	-0.571878	0.770963	1.22825	-0.51265	0.518553	0.0763379	-0.336949	0.748533	1.09949	-0.315859	0.655583	0.443188	-0.305867	0.575844	0.401279	-0.372653	0.560836	0.30098	-0.303882	0.807262	0.868645	-0.436319	0.819329	0.751873	-0.410348	0.709433	0.669256	-0.385821	0.539521	0.0937513	-0.249511	0.869569	1.39567	-0.519177	0.805206	1.35107	-0.536865	0.874512	1.30974	-0.540703	0.808005	1.52151	-0.0757092	0.908312	1.05506	-0.156463	0.912837	0.125605	-0.222306	0.684152	1.13025	-0.0535547	0.623252	1.22958	-0.0105967	0.626007	1.10172	-0.0262149	0.562941	1.34254	-0.0170523	0.549516	1.32961	-0.0980798	1.10563	0.122655	-0.159527	0.74323	1.09914	-0.21892	1.02816	0.42492	-0.214337	0.992073	0.365545	-0.149886	1.01267	0.303836	-0.218268	0.874474	0.893706	-0.0921707	0.950896	0.644404	-0.144207	1.12085	0.148448	-0.251261	0.698955	1.43435	-0.037073	0.645056	1.45417	-0.0868479	0.62501	1.38636	-0.0233961
184	2.3	0.803339	1.565	-0.282955	0.916493	1.50974	-0.220785	0.905483	1.52562	-0.444035	0.904616	1.05251	-0.382637	0.408851	0.258546	-0.302042	0.983959	1.24883	-0.379347	0.939107	1.21815	-0.493038	1.01297	1.19135	-0.407576	0.837922	1.23627	-0.572437	0.771324	1.23042	-0.513384	0.506044	0.0799139	-0.337664	0.749659	1.1011	-0.315393	0.655014	0.444519	-0.306988	0.574356	0.404622	-0.374032	0.556723	0.304712	-0.305112	0.80861	0.870852	-0.436402	0.821134	0.753499	-0.410648	0.711783	0.67026	-0.386814	0.528005	0.0971909	-0.250539	0.870025	1.39789	-0.519017	0.805595	1.35345	-0.536665	0.875097	1.31225	-0.54207	0.808814	1.52267	-0.075127	0.908924	1.05511	-0.156046	0.924592	0.121423	-0.223798	0.685909	1.13128	-0.0537729	0.624365	1.23068	-0.0110396	0.627758	1.1028	-0.0266092	0.563579	1.34345	-0.0178243	0.550701	1.33045	-0.0989538	1.11779	0.125975	-0.162107	0.743994	1.09967	-0.218616	1.02936	0.425087	-0.215957	0.995424	0.364483	-0.151123	1.01804	0.303627	-0.21986	0.87392	0.892809	-0.0921103	0.947604	0.642887	-0.144728	1.13129	0.15317	-0.253947	0.699576	1.43549	-0.0371385	0.64611	1.45514	-0.0874982	0.625554	1.38755	-0.0238723
185	2.30833	0.803963	1.56513	-0.282023	0.917409	1.51007	-0.220206	0.905978	1.52613	-0.443116	0.905926	1.05395	-0.382653	0.405604	0.267322	-0.30399	0.98301	1.2493	-0.378833	0.938422	1.21878	-0.492787	1.01181	1.19162	-0.406959	0.837698	1.23758	-0.572797	0.771217	1.23178	-0.513815	0.49359	0.0833751	-0.338032	0.750644	1.10175	-0.315107	0.655418	0.444769	-0.308102	0.573927	0.40701	-0.375265	0.553211	0.307832	-0.306196	0.810348	0.87205	-0.436378	0.823726	0.754218	-0.410647	0.715216	0.669928	-0.387894	0.516751	0.100572	-0.251496	0.87014	1.39916	-0.518771	0.805571	1.35489	-0.536265	0.875224	1.31383	-0.543352	0.809872	1.52305	-0.0743271	0.909257	1.05462	-0.155602	0.93367	0.11817	-0.225108	0.688194	1.13123	-0.0538831	0.626029	1.23066	-0.0112527	0.630062	1.10276	-0.0268209	0.564699	1.34318	-0.01825	0.552268	1.33012	-0.0994527	1.12698	0.128721	-0.164362	0.744441	1.09921	-0.21827	1.03006	0.424886	-0.217721	0.998069	0.363435	-0.152408	1.02208	0.303292	-0.221552	0.873604	0.891456	-0.091878	0.944659	0.640938	-0.145357	1.1391	0.156635	-0.256569	0.70055	1.43563	-0.0369507	0.647342	1.45514	-0.0876665	0.626562	1.38766	-0.0239091
186	2.31667	0.804728	1.56474	-0.281016	0.918428	1.50969	-0.219685	0.906384	1.52585	-0.442365	0.907053	1.05471	-0.382626	0.402994	0.275704	-0.305854	0.982077	1.24868	-0.37838	0.937353	1.21832	-0.492469	1.01037	1.19076	-0.406397	0.836973	1.23798	-0.572923	0.770579	1.2324	-0.513911	0.48126	0.0868425	-0.338225	0.751481	1.10142	-0.315015	0.656717	0.444004	-0.309325	0.574429	0.408538	-0.37633	0.550297	0.310383	-0.307238	0.812541	0.87214	-0.436269	0.827078	0.753957	-0.410281	0.719672	0.6683	-0.389035	0.505744	0.103915	-0.252388	0.869913	1.39948	-0.518434	0.80515	1.35539	-0.535679	0.874885	1.31446	-0.544449	0.811174	1.52266	-0.0733509	0.909356	1.05366	-0.155146	0.939946	0.115483	-0.226412	0.690985	1.13021	-0.0538358	0.628218	1.22952	-0.011232	0.632909	1.10159	-0.0268839	0.56629	1.34174	-0.0183154	0.554233	1.32864	-0.0996079	1.13315	0.130589	-0.166406	0.744646	1.09786	-0.217983	1.03024	0.424214	-0.219665	1.00006	0.362257	-0.153836	1.02471	0.302624	-0.22341	0.873415	0.889718	-0.0914986	0.942187	0.638707	-0.146133	1.14435	0.158534	-0.259108	0.701858	1.43476	-0.0364874	0.648739	1.45417	-0.0873541	0.628009	1.38667	-0.0235406
